<svg xmlns="http://www.w3.org/2000/svg" width="495" height="195" viewBox="0 0 495 195" role="img" aria-labelledby="title desc">
  <title id="title">BorisGuo6&#x27;s Top Languages</title>
  <desc id="desc">Calculated by byte count across public, non-fork repositories.</desc>
  <style>
    .title { fill: #4895EF; font: 600 18px -apple-system, BlinkMacSystemFont, Segoe UI, sans-serif; }
    .label { fill: #8B949E; font: 400 12px -apple-system, BlinkMacSystemFont, Segoe UI, sans-serif; }
    .value { fill: #C9D1D9; font: 600 20px -apple-system, BlinkMacSystemFont, Segoe UI, sans-serif; }
    .legend { fill: #C9D1D9; font: 500 12px -apple-system, BlinkMacSystemFont, Segoe UI, sans-serif; }
    .footer { fill: #6E7681; font: 400 10px -apple-system, BlinkMacSystemFont, Segoe UI, sans-serif; }
  </style>
  <rect x="0.5" y="0.5" width="494" height="194" rx="6" fill="#0D1117" stroke="#30363D"/>
  <text x="24" y="32" class="title">BorisGuo6&#x27;s Top Languages</text>
  <rect x="24.00" y="51" width="219.70" height="10" fill="#f1e05a"/>
  <rect x="243.70" y="51" width="93.09" height="10" fill="#3572A5"/>
  <rect x="336.79" y="51" width="68.67" height="10" fill="#DA5B0B"/>
  <rect x="405.46" y="51" width="43.34" height="10" fill="#e34c26"/>
  <rect x="448.80" y="51" width="9.33" height="10" fill="#427819"/>
  <rect x="458.13" y="51" width="5.89" height="10" fill="#563d7c"/>
  <rect x="464.02" y="51" width="4.52" height="10" fill="#89e051"/>
  <rect x="468.54" y="51" width="2.46" height="10" fill="#FB8500"/>
  <circle cx="29" cy="82" r="5" fill="#f1e05a"/>
  <text x="40" y="86" class="legend">JavaScript 49.1%</text>
  <circle cx="263" cy="82" r="5" fill="#3572A5"/>
  <text x="274" y="86" class="legend">Python 20.8%</text>
  <circle cx="29" cy="102" r="5" fill="#DA5B0B"/>
  <text x="40" y="106" class="legend">Jupyter Notebook 15.4%</text>
  <circle cx="263" cy="102" r="5" fill="#e34c26"/>
  <text x="274" y="106" class="legend">HTML 9.7%</text>
  <circle cx="29" cy="122" r="5" fill="#427819"/>
  <text x="40" y="126" class="legend">Makefile 2.1%</text>
  <circle cx="263" cy="122" r="5" fill="#563d7c"/>
  <text x="274" y="126" class="legend">CSS 1.3%</text>
  <circle cx="29" cy="142" r="5" fill="#89e051"/>
  <text x="40" y="146" class="legend">Shell 1.0%</text>
  <circle cx="263" cy="142" r="5" fill="#FB8500"/>
  <text x="274" y="146" class="legend">CMake 0.5%</text>
  <text x="24" y="178" class="footer">Calculated by byte count across public, non-fork repositories.</text>
</svg>
